<svg width="274" height="49" viewBox="0 0 274 49" fill="none" xmlns="http://www.w3.org/2000/svg">
<path d="M38.7687 11.628L26.3971 1.90127C23.0249 -0.753661 17.8486 -0.608847 14.6054 2.21503L3.84466 11.6521C1.69681 13.5347 0 17.3964 0 20.4374V37.091C0 43.2456 4.44606 48.2659 9.92309 48.2659H33.0769C38.5539 48.2659 43 43.2698 43 37.1152V20.7511C43 17.4929 41.1314 13.4864 38.7687 11.628ZM23.1109 38.6116C23.1109 39.6011 22.3806 40.4218 21.5 40.4218C20.6193 40.4218 19.8891 39.6011 19.8891 38.6116V31.3709C19.8891 30.3813 20.6193 29.5607 21.5 29.5607C22.3806 29.5607 23.1109 30.3813 23.1109 31.3709V38.6116Z" fill="#F8FCF9"/>
<path d="M66.712 36V18.784C66.712 17.5893 66.9787 16.512 67.512 15.552C68.0453 14.592 68.792 13.8347 69.752 13.28C70.7333 12.704 71.896 12.416 73.24 12.416C73.9653 12.416 74.6267 12.512 75.224 12.704C75.8213 12.896 76.3973 13.2053 76.952 13.632L74.52 17.216C74.3067 17.0667 74.0933 16.96 73.88 16.896C73.688 16.832 73.4747 16.8 73.24 16.8C72.7067 16.8 72.3013 16.96 72.024 17.28C71.7467 17.5787 71.608 17.9947 71.608 18.528V36H66.712ZM63.288 24.608V20.448H78.936V24.608H63.288ZM76.888 36V20.448H81.784V36H76.888ZM79.352 19.328C78.6267 19.328 78.0187 19.0827 77.528 18.592C77.0587 18.08 76.824 17.4613 76.824 16.736C76.824 16.0107 77.0587 15.4027 77.528 14.912C78.0187 14.4213 78.6267 14.176 79.352 14.176C80.0987 14.176 80.7067 14.4213 81.176 14.912C81.6453 15.4027 81.88 16.0107 81.88 16.736C81.88 17.4613 81.6453 18.08 81.176 18.592C80.7067 19.0827 80.0987 19.328 79.352 19.328ZM95.4688 36V27.136C95.4688 26.3253 95.2128 25.6747 94.7008 25.184C94.2101 24.672 93.5808 24.416 92.8128 24.416C92.2794 24.416 91.8101 24.5333 91.4048 24.768C90.9994 24.9813 90.6794 25.3013 90.4448 25.728C90.2101 26.1333 90.0928 26.6027 90.0928 27.136L88.2048 26.208C88.2048 24.992 88.4714 23.9253 89.0048 23.008C89.5381 22.0907 90.2741 21.3867 91.2128 20.896C92.1728 20.384 93.2501 20.128 94.4448 20.128C95.5968 20.128 96.6101 20.4053 97.4848 20.96C98.3808 21.4933 99.0848 22.208 99.5968 23.104C100.109 24 100.365 24.9813 100.365 26.048V36H95.4688ZM85.1968 36V20.448H90.0928V36H85.1968ZM110.133 36.32C108.661 36.32 107.349 35.968 106.197 35.264C105.067 34.56 104.171 33.6 103.509 32.384C102.869 31.168 102.549 29.7813 102.549 28.224C102.549 26.6667 102.869 25.28 103.509 24.064C104.171 22.848 105.067 21.888 106.197 21.184C107.349 20.48 108.661 20.128 110.133 20.128C111.2 20.128 112.16 20.3307 113.013 20.736C113.888 21.1413 114.603 21.7067 115.157 22.432C115.733 23.136 116.053 23.9467 116.117 24.864V31.424C116.053 32.3413 115.744 33.1733 115.189 33.92C114.635 34.6453 113.92 35.232 113.045 35.68C112.171 36.1067 111.2 36.32 110.133 36.32ZM110.997 31.904C111.701 31.904 112.309 31.7547 112.821 31.456C113.333 31.136 113.739 30.6987 114.037 30.144C114.336 29.5893 114.485 28.9493 114.485 28.224C114.485 27.4987 114.336 26.8693 114.037 26.336C113.76 25.7813 113.355 25.344 112.821 25.024C112.309 24.704 111.712 24.544 111.029 24.544C110.347 24.544 109.739 24.704 109.205 25.024C108.693 25.344 108.277 25.7813 107.957 26.336C107.659 26.8907 107.509 27.52 107.509 28.224C107.509 28.928 107.659 29.5573 107.957 30.112C108.256 30.6667 108.672 31.104 109.205 31.424C109.739 31.744 110.336 31.904 110.997 31.904ZM119.093 36H114.293V31.808L115.029 28.032L114.197 24.256V12.768H119.093V36ZM128.525 36V13.728H133.549V36H128.525ZM121.453 17.792V13.408H140.621V17.792H121.453ZM153.25 36V27.136C153.25 26.3253 152.994 25.6747 152.482 25.184C151.991 24.672 151.362 24.416 150.594 24.416C150.061 24.416 149.591 24.5333 149.186 24.768C148.781 24.9813 148.461 25.3013 148.226 25.728C147.991 26.1333 147.874 26.6027 147.874 27.136L145.986 26.208C145.986 24.992 146.242 23.9253 146.754 23.008C147.266 22.0907 147.981 21.3867 148.898 20.896C149.815 20.384 150.871 20.128 152.066 20.128C153.282 20.128 154.349 20.384 155.266 20.896C156.183 21.3867 156.887 22.08 157.378 22.976C157.89 23.8507 158.146 24.8747 158.146 26.048V36H153.25ZM142.978 36V12.768H147.874V36H142.978ZM168.97 36.352C167.285 36.352 165.781 36.0107 164.459 35.328C163.157 34.624 162.133 33.6533 161.387 32.416C160.64 31.1787 160.267 29.7813 160.267 28.224C160.267 26.6667 160.629 25.28 161.355 24.064C162.101 22.8267 163.104 21.856 164.363 21.152C165.621 20.448 167.04 20.096 168.619 20.096C170.155 20.096 171.509 20.4267 172.683 21.088C173.856 21.7493 174.773 22.6667 175.435 23.84C176.117 25.0133 176.458 26.3573 176.458 27.872C176.458 28.1493 176.437 28.448 176.395 28.768C176.373 29.0667 176.32 29.4187 176.235 29.824L162.827 29.856V26.496L174.155 26.464L172.043 27.872C172.021 26.976 171.883 26.24 171.627 25.664C171.371 25.0667 170.987 24.6187 170.475 24.32C169.984 24 169.376 23.84 168.651 23.84C167.883 23.84 167.211 24.0213 166.635 24.384C166.08 24.7253 165.643 25.216 165.323 25.856C165.024 26.496 164.875 27.2747 164.875 28.192C164.875 29.1093 165.035 29.8987 165.355 30.56C165.696 31.2 166.165 31.7013 166.763 32.064C167.381 32.4053 168.107 32.576 168.939 32.576C169.707 32.576 170.4 32.448 171.019 32.192C171.637 31.9147 172.181 31.5093 172.651 30.976L175.339 33.664C174.571 34.56 173.643 35.232 172.555 35.68C171.467 36.128 170.272 36.352 168.97 36.352ZM179.27 36V13.408H184.294V36H179.27ZM193.254 36V13.408H198.31V36H193.254ZM182.278 26.56V22.208H194.918V26.56H182.278ZM209.685 36.352C208.085 36.352 206.634 36 205.333 35.296C204.053 34.5707 203.039 33.5893 202.293 32.352C201.546 31.1147 201.173 29.728 201.173 28.192C201.173 26.656 201.546 25.28 202.293 24.064C203.039 22.848 204.053 21.888 205.333 21.184C206.613 20.4587 208.063 20.096 209.685 20.096C211.306 20.096 212.757 20.448 214.037 21.152C215.317 21.856 216.33 22.8267 217.077 24.064C217.823 25.28 218.197 26.656 218.197 28.192C218.197 29.728 217.823 31.1147 217.077 32.352C216.33 33.5893 215.317 34.5707 214.037 35.296C212.757 36 211.306 36.352 209.685 36.352ZM209.685 31.904C210.389 31.904 211.007 31.7547 211.541 31.456C212.074 31.136 212.479 30.6987 212.757 30.144C213.055 29.568 213.205 28.9173 213.205 28.192C213.205 27.4667 213.055 26.8373 212.757 26.304C212.458 25.7493 212.042 25.3227 211.509 25.024C210.997 24.704 210.389 24.544 209.685 24.544C209.002 24.544 208.394 24.704 207.861 25.024C207.327 25.3227 206.911 25.7493 206.613 26.304C206.314 26.8587 206.165 27.4987 206.165 28.224C206.165 28.928 206.314 29.568 206.613 30.144C206.911 30.6987 207.327 31.136 207.861 31.456C208.394 31.7547 209.002 31.904 209.685 31.904ZM220.634 36V20.448H225.53V36H220.634ZM230.586 36V26.912C230.586 26.1227 230.341 25.5147 229.85 25.088C229.381 24.64 228.794 24.416 228.09 24.416C227.6 24.416 227.162 24.5227 226.778 24.736C226.394 24.928 226.085 25.2053 225.85 25.568C225.637 25.9307 225.53 26.3787 225.53 26.912L223.642 26.08C223.642 24.8427 223.909 23.7867 224.442 22.912C224.976 22.016 225.701 21.3333 226.618 20.864C227.536 20.3733 228.57 20.128 229.722 20.128C230.81 20.128 231.781 20.3733 232.634 20.864C233.509 21.3547 234.202 22.0373 234.714 22.912C235.226 23.7867 235.482 24.832 235.482 26.048V36H230.586ZM240.538 36V26.912C240.538 26.1227 240.293 25.5147 239.802 25.088C239.333 24.64 238.746 24.416 238.042 24.416C237.552 24.416 237.114 24.5227 236.73 24.736C236.346 24.928 236.037 25.2053 235.802 25.568C235.589 25.9307 235.482 26.3787 235.482 26.912L232.666 26.528C232.709 25.2053 233.018 24.0747 233.594 23.136C234.192 22.176 234.97 21.44 235.93 20.928C236.912 20.3947 238.01 20.128 239.226 20.128C240.421 20.128 241.477 20.384 242.394 20.896C243.333 21.3867 244.069 22.1013 244.602 23.04C245.157 23.9573 245.434 25.0667 245.434 26.368V36H240.538ZM256.252 36.352C254.566 36.352 253.062 36.0107 251.74 35.328C250.438 34.624 249.414 33.6533 248.668 32.416C247.921 31.1787 247.548 29.7813 247.548 28.224C247.548 26.6667 247.91 25.28 248.636 24.064C249.382 22.8267 250.385 21.856 251.644 21.152C252.902 20.448 254.321 20.096 255.9 20.096C257.436 20.096 258.79 20.4267 259.964 21.088C261.137 21.7493 262.054 22.6667 262.716 23.84C263.398 25.0133 263.74 26.3573 263.74 27.872C263.74 28.1493 263.718 28.448 263.676 28.768C263.654 29.0667 263.601 29.4187 263.516 29.824L250.108 29.856V26.496L261.436 26.464L259.324 27.872C259.302 26.976 259.164 26.24 258.908 25.664C258.652 25.0667 258.268 24.6187 257.756 24.32C257.265 24 256.657 23.84 255.932 23.84C255.164 23.84 254.492 24.0213 253.916 24.384C253.361 24.7253 252.924 25.216 252.604 25.856C252.305 26.496 252.156 27.2747 252.156 28.192C252.156 29.1093 252.316 29.8987 252.636 30.56C252.977 31.2 253.446 31.7013 254.044 32.064C254.662 32.4053 255.388 32.576 256.22 32.576C256.988 32.576 257.681 32.448 258.3 32.192C258.918 31.9147 259.462 31.5093 259.932 30.976L262.62 33.664C261.852 34.56 260.924 35.232 259.836 35.68C258.748 36.128 257.553 36.352 256.252 36.352ZM269.175 36.352C268.343 36.352 267.65 36.064 267.095 35.488C266.54 34.912 266.263 34.2187 266.263 33.408C266.263 32.5547 266.54 31.8507 267.095 31.296C267.65 30.72 268.343 30.432 269.175 30.432C270.028 30.432 270.722 30.72 271.255 31.296C271.81 31.8507 272.087 32.5547 272.087 33.408C272.087 34.2187 271.81 34.912 271.255 35.488C270.722 36.064 270.028 36.352 269.175 36.352Z" fill="#F8FCF9"/>
</svg>
