<svg width="622" height="790" viewBox="0 0 622 790" fill="none" xmlns="http://www.w3.org/2000/svg">
<mask id="mask0_58_403" style="mask-type:alpha" maskUnits="userSpaceOnUse" x="0" y="0" width="622" height="790">
<rect width="622" height="790" rx="20" fill="#4B81B4"/>
</mask>
<g mask="url(#mask0_58_403)">
<rect width="622" height="790" rx="20" fill="#4B81B4"/>
<circle cx="126" cy="629" r="287" fill="#2B3765"/>
<circle cx="499" cy="535" r="287" fill="#528D56"/>
<circle cx="87" cy="-69" r="287" fill="#FFBE2C"/>
<path d="M158.568 390V364.176C158.568 362.384 158.968 360.768 159.768 359.328C160.568 357.888 161.688 356.752 163.128 355.92C164.6 355.056 166.344 354.624 168.36 354.624C169.448 354.624 170.44 354.768 171.336 355.056C172.232 355.344 173.096 355.808 173.928 356.448L170.28 361.824C169.96 361.6 169.64 361.44 169.32 361.344C169.032 361.248 168.712 361.2 168.36 361.2C167.56 361.2 166.952 361.44 166.536 361.92C166.12 362.368 165.912 362.992 165.912 363.792V390H158.568ZM153.432 372.912V366.672H176.904V372.912H153.432ZM173.832 390V366.672H181.176V390H173.832ZM177.528 364.992C176.44 364.992 175.528 364.624 174.792 363.888C174.088 363.12 173.736 362.192 173.736 361.104C173.736 360.016 174.088 359.104 174.792 358.368C175.528 357.632 176.44 357.264 177.528 357.264C178.648 357.264 179.56 357.632 180.264 358.368C180.968 359.104 181.32 360.016 181.32 361.104C181.32 362.192 180.968 363.12 180.264 363.888C179.56 364.624 178.648 364.992 177.528 364.992ZM201.703 390V376.704C201.703 375.488 201.319 374.512 200.551 373.776C199.815 373.008 198.871 372.624 197.719 372.624C196.919 372.624 196.215 372.8 195.607 373.152C194.999 373.472 194.519 373.952 194.167 374.592C193.815 375.2 193.639 375.904 193.639 376.704L190.807 375.312C190.807 373.488 191.207 371.888 192.007 370.512C192.807 369.136 193.911 368.08 195.319 367.344C196.759 366.576 198.375 366.192 200.167 366.192C201.895 366.192 203.415 366.608 204.727 367.44C206.071 368.24 207.127 369.312 207.895 370.656C208.663 372 209.047 373.472 209.047 375.072V390H201.703ZM186.295 390V366.672H193.639V390H186.295ZM223.7 390.48C221.492 390.48 219.524 389.952 217.796 388.896C216.1 387.84 214.756 386.4 213.764 384.576C212.804 382.752 212.324 380.672 212.324 378.336C212.324 376 212.804 373.92 213.764 372.096C214.756 370.272 216.1 368.832 217.796 367.776C219.524 366.72 221.492 366.192 223.7 366.192C225.3 366.192 226.74 366.496 228.02 367.104C229.332 367.712 230.404 368.56 231.236 369.648C232.1 370.704 232.58 371.92 232.676 373.296V383.136C232.58 384.512 232.116 385.76 231.284 386.88C230.452 387.968 229.38 388.848 228.068 389.52C226.756 390.16 225.3 390.48 223.7 390.48ZM224.996 383.856C226.052 383.856 226.964 383.632 227.732 383.184C228.5 382.704 229.108 382.048 229.556 381.216C230.004 380.384 230.228 379.424 230.228 378.336C230.228 377.248 230.004 376.304 229.556 375.504C229.14 374.672 228.532 374.016 227.732 373.536C226.964 373.056 226.068 372.816 225.044 372.816C224.02 372.816 223.108 373.056 222.308 373.536C221.54 374.016 220.916 374.672 220.436 375.504C219.988 376.336 219.764 377.28 219.764 378.336C219.764 379.392 219.988 380.336 220.436 381.168C220.884 382 221.508 382.656 222.308 383.136C223.108 383.616 224.004 383.856 224.996 383.856ZM237.14 390H229.94V383.712L231.044 378.048L229.796 372.384V355.152H237.14V390ZM251.287 390V356.592H258.823V390H251.287ZM240.679 362.688V356.112H269.431V362.688H240.679ZM288.375 390V376.704C288.375 375.488 287.991 374.512 287.223 373.776C286.487 373.008 285.543 372.624 284.391 372.624C283.591 372.624 282.887 372.8 282.279 373.152C281.671 373.472 281.191 373.952 280.839 374.592C280.487 375.2 280.311 375.904 280.311 376.704L277.479 375.312C277.479 373.488 277.863 371.888 278.631 370.512C279.399 369.136 280.471 368.08 281.847 367.344C283.223 366.576 284.807 366.192 286.599 366.192C288.423 366.192 290.023 366.576 291.399 367.344C292.775 368.08 293.831 369.12 294.567 370.464C295.335 371.776 295.719 373.312 295.719 375.072V390H288.375ZM272.967 390V355.152H280.311V390H272.967ZM311.956 390.528C309.428 390.528 307.172 390.016 305.188 388.992C303.236 387.936 301.7 386.48 300.58 384.624C299.46 382.768 298.9 380.672 298.9 378.336C298.9 376 299.444 373.92 300.532 372.096C301.652 370.24 303.156 368.784 305.044 367.728C306.932 366.672 309.06 366.144 311.428 366.144C313.732 366.144 315.764 366.64 317.524 367.632C319.284 368.624 320.66 370 321.652 371.76C322.676 373.52 323.188 375.536 323.188 377.808C323.188 378.224 323.156 378.672 323.092 379.152C323.06 379.6 322.98 380.128 322.852 380.736L302.74 380.784V375.744L319.732 375.696L316.564 377.808C316.532 376.464 316.324 375.36 315.94 374.496C315.556 373.6 314.98 372.928 314.212 372.48C313.476 372 312.564 371.76 311.476 371.76C310.324 371.76 309.316 372.032 308.452 372.576C307.62 373.088 306.964 373.824 306.484 374.784C306.036 375.744 305.812 376.912 305.812 378.288C305.812 379.664 306.052 380.848 306.532 381.84C307.044 382.8 307.748 383.552 308.644 384.096C309.572 384.608 310.66 384.864 311.908 384.864C313.06 384.864 314.1 384.672 315.028 384.288C315.956 383.872 316.772 383.264 317.476 382.464L321.508 386.496C320.356 387.84 318.964 388.848 317.332 389.52C315.7 390.192 313.908 390.528 311.956 390.528ZM327.405 390V356.112H334.941V390H327.405ZM348.381 390V356.112H355.965V390H348.381ZM331.917 375.84V369.312H350.877V375.84H331.917ZM373.027 390.528C370.627 390.528 368.451 390 366.499 388.944C364.579 387.856 363.059 386.384 361.939 384.528C360.819 382.672 360.259 380.592 360.259 378.288C360.259 375.984 360.819 373.92 361.939 372.096C363.059 370.272 364.579 368.832 366.499 367.776C368.419 366.688 370.595 366.144 373.027 366.144C375.459 366.144 377.635 366.672 379.555 367.728C381.475 368.784 382.995 370.24 384.115 372.096C385.235 373.92 385.795 375.984 385.795 378.288C385.795 380.592 385.235 382.672 384.115 384.528C382.995 386.384 381.475 387.856 379.555 388.944C377.635 390 375.459 390.528 373.027 390.528ZM373.027 383.856C374.083 383.856 375.011 383.632 375.811 383.184C376.611 382.704 377.219 382.048 377.635 381.216C378.083 380.352 378.307 379.376 378.307 378.288C378.307 377.2 378.083 376.256 377.635 375.456C377.187 374.624 376.563 373.984 375.763 373.536C374.995 373.056 374.083 372.816 373.027 372.816C372.003 372.816 371.091 373.056 370.291 373.536C369.491 373.984 368.867 374.624 368.419 375.456C367.971 376.288 367.747 377.248 367.747 378.336C367.747 379.392 367.971 380.352 368.419 381.216C368.867 382.048 369.491 382.704 370.291 383.184C371.091 383.632 372.003 383.856 373.027 383.856ZM389.451 390V366.672H396.795V390H389.451ZM404.379 390V376.368C404.379 375.184 404.011 374.272 403.275 373.632C402.571 372.96 401.691 372.624 400.635 372.624C399.899 372.624 399.243 372.784 398.667 373.104C398.091 373.392 397.627 373.808 397.275 374.352C396.955 374.896 396.795 375.568 396.795 376.368L393.963 375.12C393.963 373.264 394.363 371.68 395.163 370.368C395.963 369.024 397.051 368 398.427 367.296C399.803 366.56 401.355 366.192 403.083 366.192C404.715 366.192 406.171 366.56 407.451 367.296C408.763 368.032 409.803 369.056 410.571 370.368C411.339 371.68 411.723 373.248 411.723 375.072V390H404.379ZM419.307 390V376.368C419.307 375.184 418.939 374.272 418.203 373.632C417.499 372.96 416.619 372.624 415.563 372.624C414.827 372.624 414.171 372.784 413.595 373.104C413.019 373.392 412.555 373.808 412.203 374.352C411.883 374.896 411.723 375.568 411.723 376.368L407.499 375.792C407.563 373.808 408.027 372.112 408.891 370.704C409.787 369.264 410.955 368.16 412.395 367.392C413.867 366.592 415.515 366.192 417.339 366.192C419.131 366.192 420.715 366.576 422.091 367.344C423.499 368.08 424.603 369.152 425.403 370.56C426.235 371.936 426.651 373.6 426.651 375.552V390H419.307ZM442.878 390.528C440.35 390.528 438.094 390.016 436.11 388.992C434.158 387.936 432.622 386.48 431.502 384.624C430.382 382.768 429.822 380.672 429.822 378.336C429.822 376 430.366 373.92 431.454 372.096C432.574 370.24 434.078 368.784 435.966 367.728C437.854 366.672 439.982 366.144 442.35 366.144C444.654 366.144 446.686 366.64 448.446 367.632C450.206 368.624 451.582 370 452.574 371.76C453.598 373.52 454.11 375.536 454.11 377.808C454.11 378.224 454.078 378.672 454.014 379.152C453.982 379.6 453.902 380.128 453.774 380.736L433.662 380.784V375.744L450.654 375.696L447.486 377.808C447.454 376.464 447.246 375.36 446.862 374.496C446.478 373.6 445.902 372.928 445.134 372.48C444.398 372 443.486 371.76 442.398 371.76C441.246 371.76 440.238 372.032 439.374 372.576C438.542 373.088 437.886 373.824 437.406 374.784C436.958 375.744 436.734 376.912 436.734 378.288C436.734 379.664 436.974 380.848 437.454 381.84C437.966 382.8 438.67 383.552 439.566 384.096C440.494 384.608 441.582 384.864 442.83 384.864C443.982 384.864 445.022 384.672 445.95 384.288C446.878 383.872 447.694 383.264 448.398 382.464L452.43 386.496C451.278 387.84 449.886 388.848 448.254 389.52C446.622 390.192 444.83 390.528 442.878 390.528ZM462.263 390.528C461.015 390.528 459.975 390.096 459.143 389.232C458.311 388.368 457.895 387.328 457.895 386.112C457.895 384.832 458.311 383.776 459.143 382.944C459.975 382.08 461.015 381.648 462.263 381.648C463.543 381.648 464.583 382.08 465.383 382.944C466.215 383.776 466.631 384.832 466.631 386.112C466.631 387.328 466.215 388.368 465.383 389.232C464.583 390.096 463.543 390.528 462.263 390.528Z" fill="#EDF8EF"/>
</g>
</svg>
